<?xml version="1.0" encoding="UTF-8"?>
<svg id="Calque_2" xmlns="http://www.w3.org/2000/svg" viewBox="0 0 343.7 209.76">
  <defs>
    <style>
      .cls-1 {
        fill: #1d1d1f;
      }
    </style>
  </defs>
  <g id="Layer_1">
    <g>
      <g>
        <path class="cls-1" d="M152.44,0h-32.16L.85,200.75c-2.36,3.97.5,9.01,5.12,9.01h31.91L157.57,9.02c2.37-3.97-.49-9.02-5.12-9.02Z"/>
        <path class="cls-1" d="M50.99,95.15L107.6,0H9.8C5.43,0,2.63,4.67,4.69,8.53l46.3,86.62Z"/>
        <path class="cls-1" d="M196.33,199.86l-73.28-111.65-9.94,16.67-62.53,104.88h140.41c5.08,0,8.13-5.65,5.34-9.9Z"/>
      </g>
      <g>
        <path class="cls-1" d="M309.13,42.62c0-23.54-17.63-42.62-39.38-42.62h-61.57v85.25h61.57c21.75,0,39.38-19.09,39.38-42.63Z"/>
        <path class="cls-1" d="M290.84,95.32h-82.66v114.44h82.66c29.19,0,52.86-25.62,52.86-57.22s-23.67-57.22-52.86-57.22Z"/>
      </g>
    </g>
  </g>
</svg>